<?xml version="1.0" encoding="utf-8"?>
<!DOCTYPE svg PUBLIC "-//W3C//DTD SVG 1.1//EN" "http://www.w3.org/Graphics/SVG/1.1/DTD/svg11.dtd">
<svg version="1.1" xmlns="http://www.w3.org/2000/svg" xmlns:xlink="http://www.w3.org/1999/xlink" x="0px" y="0px" viewBox="0 0 1000 1000" enable-background="new 0 0 1000 1000" xml:space="preserve">
<g><path fill="#233580" d="M136.4,866.5c3.7,16.5,7.4,33.1,11.1,49.7c232.1-51.8,472.8-51.8,705,0c3.7-16.5,7.4-33.2,11.1-49.7C624.1,813,375.8,813,136.4,866.5L136.4,866.5z"/><path fill="#233580" d="M463.9,703.6c-54.3,1.1-108.4,4.8-162.4,11.1c23.1,9.2,40.2,28.9,42.6,54c1.8,19.1-4.9,37-16.3,50.7c41.4-4.4,83-7.3,124.6-8.5c-13.2-12-22.2-28.8-23-48.1C428,737.8,442.2,716,463.9,703.6L463.9,703.6z"/><path fill="#233580" d="M698.6,714.8c-54-6.3-108.2-10-162.5-11.1c21.8,12.2,35.9,34.1,34.8,59.3c-0.8,19.2-9.8,36.1-23,48.1c41.5,1.3,83.1,4.1,124.5,8.5c-11.5-13.7-18.1-31.6-16.3-50.7C658.4,743.7,675.5,724,698.6,714.8L698.6,714.8z"/><path fill="#233580" d="M796.7,788.2c-3.4,18.9-14.7,34.3-29.5,44.5c28.6,4.8,57,10.3,85.2,16.7c7.8-34.8,15.6-69.6,23.4-104.5c-35-7.8-70.2-14.5-105.6-20.2C790.1,739.8,801.2,763.4,796.7,788.2L796.7,788.2z"/><path fill="#233580" d="M229.8,724.6c-35.4,5.6-70.6,12.3-105.6,20.2c7.8,34.9,15.6,69.7,23.3,104.5c28.3-6.4,56.8-11.9,85.3-16.7c-14.7-10.1-26-25.5-29.4-44.5C198.7,763.4,209.9,739.8,229.8,724.6L229.8,724.6z"/><path fill="#233580" d="M283.6,264l-1.5-23.8c-16.3,1-32.6,3.7-48.3,8l6.3,23C254.2,267.4,268.8,264.9,283.6,264L283.6,264z"/><path fill="#233580" d="M378.4,253.8c-15.2-5.4-31.2-9.4-47.5-11.7l-3.3,23.6c14.7,2.1,29,5.6,42.8,10.6L378.4,253.8L378.4,253.8z"/><path fill="#233580" d="M461.2,305.4c-11.7-11.4-24.7-21.6-38.6-30.3L410,295.5c12.5,7.8,24.1,16.9,34.5,27L461.2,305.4z"/><path fill="#233580" d="M93.7,454.1c0-10.7,1-21.6,2.9-32.2l-23.5-4.3c-2.2,12-3.3,24.3-3.3,36.5c0,4.2,0.2,8.5,0.4,12.8l23.9-1.5C93.8,461.6,93.6,457.8,93.7,454.1L93.7,454.1z"/><path fill="#233580" d="M132.1,343l-19-14.6c-10.1,13.1-18.6,27.3-25.3,42.1l21.8,9.8C115.6,367.3,123.1,354.6,132.1,343L132.1,343z"/><path fill="#233580" d="M102.2,508.1l-22.7,7.3l2.4,7.8c2.8,12,7.4,24.7,13.6,37.5l21.6-10.3c-5.4-11.4-9.4-22.4-12-33.4L102.2,508.1z"/><path fill="#233580" d="M198.7,287.5l-5.1-10.8l-6.7-10c-14.1,7.4-27.4,16.3-39.6,26.3l15.3,18.4C173.4,302.3,185.3,294.4,198.7,287.5L198.7,287.5z"/><path fill="#233580" d="M538.6,305.9l16.8,17c10.3-10.1,21.9-19.3,34.4-27.2L577,275.4C563,284.3,550.1,294.5,538.6,305.9L538.6,305.9z"/><path fill="#233580" d="M894.9,517.7c-2.4,10-6.2,20.8-11.5,32L905,560c6-12.7,10.5-25.1,13.1-36.2l2.7-9.1l-22.7-7.3L894.9,517.7L894.9,517.7z"/><path fill="#233580" d="M811.2,265.6l-8.9,22.3c12.3,6.5,24.1,14.3,34.8,23.1l15.2-18.5c-12-9.8-25-18.5-38.5-25.6L811.2,265.6z"/><path fill="#233580" d="M890.1,379.8l21.8-9.9c-6.8-14.9-15.3-29-25.4-42.1l-18.9,14.7C876.5,354,884.1,366.6,890.1,379.8L890.1,379.8z"/><path fill="#233580" d="M906.3,454.1c0,3.5-0.1,7.1-0.4,10.6l23.8,1.3c0.3-3.9,0.4-7.9,0.4-11.9c0-12.3-1.2-24.9-3.4-37.2l-23.6,4.4C905.3,432.2,906.3,443.2,906.3,454.1L906.3,454.1z"/><path fill="#233580" d="M621.1,254l8.1,22.5c13.7-5,28.1-8.5,42.6-10.7l-3.3-23.7C652.3,244.5,636.4,248.4,621.1,254L621.1,254z"/><path fill="#233580" d="M715.9,264c14.7,0.8,29.3,3.3,43.4,7.1l6.4-23c-15.7-4.2-31.9-6.9-48.2-8L715.9,264L715.9,264z"/><path fill="#233580" d="M990,454.1c0-99.9-57.1-192-149-240.3c-42.3-22.1-90.1-33.8-138.2-33.8c-40.3,0-79.1,8.4-115.1,23.4c0-20.2,0-40.5,0-60.7c-15.5,5.3-31.3,9.1-47.4,11.5c-4.6-10.3-12.9-18.5-23.1-23.1c2.5-16,6.2-31.9,11.5-47.4c-20.5,0-40.9,0-61.3,0c5.3,15.5,9.1,31.3,11.6,47.4c-10.3,4.6-18.5,12.9-23.2,23.1c-16.1-2.5-31.9-6.3-47.4-11.5c0,19.6,0,39.2,0,58.7c-34.8-14-72.5-21.5-111.2-21.5c-48.1,0-95.8,11.7-138.2,33.8C67.1,262.2,10,354.3,10,454.1c0,28.7,4.8,57.3,13.7,82.7c10.9,46.5,41.5,95,81.2,142.3c-3.3,0.7-6.7,1.2-10,2c3.7,16.5,7.4,33,11.1,49.6c259.4-58,528.5-58,788,0c3.7-16.6,7.4-33.1,11.1-49.6c-3.2-0.7-6.4-1.1-9.5-1.9c39.2-46.7,69.4-94.4,80.1-140C985.1,511.8,990,483.2,990,454.1L990,454.1z M540.3,192.5c15.7,2.4,31.3,6.2,46.5,11.3c-22.8,9.7-43.7,22.7-63.3,37.8c-2.2-8.7-4.9-17.2-6.4-26C527.5,211,535.7,202.8,540.3,192.5z M498.1,154.3c10.5,0,19.1,8.5,19.1,19.1c0,10.5-8.5,19.1-19.1,19.1c-10.5,0-19.1-8.5-19.1-19.1C479,162.9,487.6,154.3,498.1,154.3z M500,571.8c13.2,0,23.9,10.7,23.9,23.9c0,13.2-10.7,23.9-23.9,23.9c-13.2,0-23.9-10.7-23.9-23.9C476.1,582.5,486.8,571.8,500,571.8z M455.9,192.5c4.6,10.3,12.9,18.5,23.2,23.1c-1.2,8-3.8,15.6-5.7,23.4c-19.1-14.2-39.4-26.6-61.3-35.8C426.3,198.5,441,194.8,455.9,192.5L455.9,192.5z M57.8,454.1c0-82.1,47.3-157.9,123.4-198c35.4-18.6,75.6-28.4,116-28.4c68.6,0,133.2,27.8,178.9,76.2v52.4l-0.5,0.5l0.5,0.7v170.8c-21.9,7.8-38.7,25.8-44.9,48.4c-27.9-44.9-78-75.1-135.8-75.1c-67.3,0-124.4,40.6-147.7,97.9c-2.5-3.5-5.7-7.2-8.1-10.5l-19.8,13.4c5.6,8.2,12.6,16.9,19.4,25.3c-1,5.4-1.3,11-1.7,16.6c-33.6-40.9-58.8-82.1-67.9-120.9C61.8,500.8,57.8,477.5,57.8,454.1L57.8,454.1z M929.8,525.9c-8.9,38.1-33.9,78.8-67.2,119.2c-0.4-5.7-0.7-11.5-1.8-17.2c7-8.9,14.2-17.8,19.9-26.2L861,588.2c-2.4,3.6-5.9,7.6-8.6,11.3c-23.3-57.3-80.5-98-147.7-98c-57.9,0-108.1,30.2-135.9,75.1c-6.3-22.6-23-40.6-44.9-48.4V358l1.1-1.3l-1.1-0.9v-51.6c45.5-48.6,110.1-76.6,178.8-76.6c40.5,0,80.6,9.8,116,28.3c76.1,40,123.4,115.9,123.4,198C942.2,477.8,938.3,501.2,929.8,525.9z"/></g>
</svg>