<?xml version="1.0" encoding="UTF-8"?>
<!DOCTYPE svg PUBLIC "-//W3C//DTD SVG 1.1//EN" "http://www.w3.org/Graphics/SVG/1.1/DTD/svg11.dtd">
<svg version="1.1" xmlns="http://www.w3.org/2000/svg" xmlns:xlink="http://www.w3.org/1999/xlink" x="0px" y="0px" viewBox="0 0 1000 1000" enable-background="new 0 0 1000 1000" xml:space="preserve">
<g><g transform="translate(0.000000,511.000000) scale(0.100000,-0.100000)"><path fill="#233580" d="M4360.4,4981.2C2384.1,4713.6,769.2,3303.9,256.1,1396.7C129,926.1,100,698.6,100,109.7c0-588.9,29-816.4,156.1-1287c185.1-687,588.9-1445.4,1021.6-1918.3l87-93.7l-95.9-185.1c-196.3-374.7-542-758.4-820.8-905.6c-149.4-80.3-203-140.5-203-227.5c0-156.1,120.4-203,533.1-203c557.6,0,1079.6,162.8,1568.1,486.3l151.7,98.1l160.6-89.2c642.4-352.4,1376.2-548.7,2159.2-575.5c849.8-26.8,1581.5,124.9,2313.1,481.8c1021.6,499.6,1771.1,1246.9,2272.9,2266.2c363.6,740.5,522,1478.9,493,2317.5c-35.7,1068.4-399.3,2065.5-1059.5,2899.7c-160.6,205.2-573.3,615.6-778.5,778.5c-695.9,550.9-1559.2,914.5-2433.5,1028.3C5290.5,5023.6,4674.9,5025.9,4360.4,4981.2z M5538.1,3069.7c345.7-171.8,533.1-579.9,430.5-943.5c-66.9-234.2-207.4-401.5-437.2-524.2c-87-46.8-131.6-53.5-323.4-53.5c-269.9,0-372.5,40.1-555.4,211.9c-365.8,345.7-332.3,916.8,71.4,1226.8c151.7,116,294.4,158.4,508.6,149.5C5373.1,3129.9,5440,3116.5,5538.1,3069.7z M5676.4,1149.1c42.4-17.9,91.4-62.5,109.3-100.4c69.1-129.4,44.6-332.4-187.4-1606c-142.8-782.9-223.1-1278.1-223.1-1376.3c0-178.4,46.8-292.2,138.3-341.3c80.3-46.8,249.8-8.9,501.9,107.1c200.7,91.5,256.5,93.7,307.8,15.6c80.3-120.4-100.4-359.1-421.6-557.6c-292.2-182.9-383.6-203-894.4-203h-446.1l-149.5,73.6c-240.9,118.2-435,359.1-488.5,604.5c-29,133.8,13.4,432.7,238.7,1733.2c80.3,464,147.2,896.7,147.2,961.4c0,200.8-60.2,252.1-332.4,294.4c-89.2,13.4-187.4,35.7-218.6,51.3c-58,26.8-122.7,120.4-122.7,180.7c0,55.8,89.2,147.2,162.8,169.5c40.2,11.2,461.7,22.3,936.8,22.3C5435.5,1180.4,5614,1173.7,5676.4,1149.1z"/></g></g>
</svg>